<?xml version="1.0" standalone="no"?>
<!DOCTYPE svg PUBLIC "-//W3C//DTD SVG 20010904//EN"
 "http://www.w3.org/TR/2001/REC-SVG-20010904/DTD/svg10.dtd">
<svg version="1.0" xmlns="http://www.w3.org/2000/svg"
 width="676.000000pt" height="676.000000pt" viewBox="0 0 676.000000 676.000000"
 preserveAspectRatio="xMidYMid meet">

<g transform="translate(0.000000,676.000000) scale(0.100000,-0.100000)"
fill="#000000" stroke="none">
<path d="M100 6100 l0 -560 560 0 560 0 0 560 0 560 -560 0 -560 0 0 -560z
m960 0 l0 -400 -400 0 -400 0 0 400 0 400 400 0 400 0 0 -400z"/>
<path d="M420 6100 l0 -240 240 0 240 0 0 240 0 240 -240 0 -240 0 0 -240z"/>
<path d="M1380 6420 l0 -240 80 0 80 0 0 -80 0 -80 80 0 80 0 0 -240 0 -240
80 0 80 0 0 80 0 80 80 0 80 0 0 -160 0 -160 -240 0 -240 0 0 240 0 240 -80 0
-80 0 0 -400 0 -400 -160 0 -160 0 0 -80 0 -80 -80 0 -80 0 0 240 0 240 -240
0 -240 0 0 -80 0 -80 -80 0 -80 0 0 -400 0 -400 -80 0 -80 0 0 -80 0 -80 80 0
80 0 0 80 0 80 80 0 80 0 0 160 0 160 320 0 320 0 0 -80 0 -80 -80 0 -80 0 0
-80 0 -80 80 0 80 0 0 -80 0 -80 80 0 80 0 0 -80 0 -80 -160 0 -160 0 0 80 0
80 -80 0 -80 0 0 -160 0 -160 -80 0 -80 0 0 -80 0 -80 80 0 80 0 0 -160 0
-160 -80 0 -80 0 0 80 0 80 -80 0 -80 0 0 -80 0 -80 -80 0 -80 0 0 80 0 80
-80 0 -80 0 0 -80 0 -80 80 0 80 0 0 -80 0 -80 80 0 80 0 0 80 0 80 80 0 80 0
0 -320 0 -320 -80 0 -80 0 0 160 0 160 -160 0 -160 0 0 -80 0 -80 80 0 80 0 0
-80 0 -80 -80 0 -80 0 0 -80 0 -80 80 0 80 0 0 -80 0 -80 80 0 80 0 0 -320 0
-320 80 0 80 0 0 240 0 240 320 0 320 0 0 80 0 80 -80 0 -80 0 0 80 0 80 80 0
80 0 0 80 0 80 -80 0 -80 0 0 -80 0 -80 -80 0 -80 0 0 -80 0 -80 -80 0 -80 0
0 80 0 80 -80 0 -80 0 0 80 0 80 160 0 160 0 0 80 0 80 160 0 160 0 0 80 0 80
-240 0 -240 0 0 160 0 160 80 0 80 0 0 -80 0 -80 240 0 240 0 0 80 0 80 80 0
80 0 0 -80 0 -80 80 0 80 0 0 -80 0 -80 80 0 80 0 0 80 0 80 80 0 80 0 0 -160
0 -160 -80 0 -80 0 0 -80 0 -80 -80 0 -80 0 0 80 0 80 -160 0 -160 0 0 -160 0
-160 80 0 80 0 0 -160 0 -160 80 0 80 0 0 -80 0 -80 80 0 80 0 0 -80 0 -80
-80 0 -80 0 0 -160 0 -160 80 0 80 0 0 80 0 80 80 0 80 0 0 -80 0 -80 80 0 80
0 0 -80 0 -80 -80 0 -80 0 0 -80 0 -80 -80 0 -80 0 0 -160 0 -160 -160 0 -160
0 0 -80 0 -80 -80 0 -80 0 0 -240 0 -240 80 0 80 0 0 -80 0 -80 80 0 80 0 0
-80 0 -80 80 0 80 0 0 80 0 80 80 0 80 0 0 -80 0 -80 80 0 80 0 0 80 0 80 -80
0 -80 0 0 80 0 80 -80 0 -80 0 0 -80 0 -80 -80 0 -80 0 0 80 0 80 -80 0 -80 0
0 240 0 240 160 0 160 0 0 80 0 80 80 0 80 0 0 -160 0 -160 -80 0 -80 0 0 -80
0 -80 160 0 160 0 0 240 0 240 80 0 80 0 0 80 0 80 80 0 80 0 0 -80 0 -80 160
0 160 0 0 -80 0 -80 -240 0 -240 0 0 -160 0 -160 80 0 80 0 0 -80 0 -80 -80 0
-80 0 0 -160 0 -160 160 0 160 0 0 80 0 80 80 0 80 0 0 -80 0 -80 80 0 80 0 0
80 0 80 -80 0 -80 0 0 80 0 80 80 0 80 0 0 80 0 80 160 0 160 0 0 -160 0 -160
-80 0 -80 0 0 -80 0 -80 240 0 240 0 0 80 0 80 80 0 80 0 0 80 0 80 160 0 160
0 0 -80 0 -80 -80 0 -80 0 0 -80 0 -80 240 0 240 0 0 160 0 160 80 0 80 0 0
-80 0 -80 80 0 80 0 0 -80 0 -80 240 0 240 0 0 80 0 80 80 0 80 0 0 -80 0 -80
480 0 480 0 0 80 0 80 80 0 80 0 0 160 0 160 80 0 80 0 0 160 0 160 -240 0
-240 0 0 160 0 160 -80 0 -80 0 0 160 0 160 80 0 80 0 0 -80 0 -80 80 0 80 0
0 -160 0 -160 80 0 80 0 0 80 0 80 80 0 80 0 0 160 0 160 -80 0 -80 0 0 80 0
80 -80 0 -80 0 0 -80 0 -80 -80 0 -80 0 0 240 0 240 80 0 80 0 0 -80 0 -80
160 0 160 0 0 80 0 80 -80 0 -80 0 0 80 0 80 -160 0 -160 0 0 80 0 80 -80 0
-80 0 0 -160 0 -160 -160 0 -160 0 0 -80 0 -80 -80 0 -80 0 0 160 0 160 160 0
160 0 0 80 0 80 -160 0 -160 0 0 80 0 80 320 0 320 0 0 80 0 80 80 0 80 0 0
-80 0 -80 80 0 80 0 0 160 0 160 80 0 80 0 0 80 0 80 -160 0 -160 0 0 80 0 80
160 0 160 0 0 240 0 240 -80 0 -80 0 0 -160 0 -160 -80 0 -80 0 0 80 0 80 -80
0 -80 0 0 160 0 160 80 0 80 0 0 80 0 80 80 0 80 0 0 80 0 80 -160 0 -160 0 0
80 0 80 -80 0 -80 0 0 160 0 160 240 0 240 0 0 -80 0 -80 80 0 80 0 0 240 0
240 -80 0 -80 0 0 80 0 80 80 0 80 0 0 160 0 160 -240 0 -240 0 0 -160 0 -160
80 0 80 0 0 -80 0 -80 80 0 80 0 0 -80 0 -80 -160 0 -160 0 0 80 0 80 -80 0
-80 0 0 160 0 160 -80 0 -80 0 0 80 0 80 -240 0 -240 0 0 -80 0 -80 -240 0
-240 0 0 80 0 80 80 0 80 0 0 240 0 240 80 0 80 0 0 -160 0 -160 80 0 80 0 0
320 0 320 -80 0 -80 0 0 -80 0 -80 -160 0 -160 0 0 -80 0 -80 -80 0 -80 0 0
80 0 80 -80 0 -80 0 0 240 0 240 80 0 80 0 0 -160 0 -160 160 0 160 0 0 80 0
80 -80 0 -80 0 0 80 0 80 160 0 160 0 0 -80 0 -80 80 0 80 0 0 160 0 160 -480
0 -480 0 0 -160 0 -160 -80 0 -80 0 0 -80 0 -80 80 0 80 0 0 -80 0 -80 -80 0
-80 0 0 -80 0 -80 80 0 80 0 0 -80 0 -80 -80 0 -80 0 0 -80 0 -80 80 0 80 0 0
-160 0 -160 -80 0 -80 0 0 80 0 80 -160 0 -160 0 0 80 0 80 80 0 80 0 0 80 0
80 -80 0 -80 0 0 80 0 80 80 0 80 0 0 80 0 80 -160 0 -160 0 0 -160 0 -160
-80 0 -80 0 0 -80 0 -80 -80 0 -80 0 0 80 0 80 -80 0 -80 0 0 80 0 80 160 0
160 0 0 80 0 80 -80 0 -80 0 0 80 0 80 80 0 80 0 0 80 0 80 -80 0 -80 0 0 160
0 160 -80 0 -80 0 0 -400 0 -400 -160 0 -160 0 0 -160 0 -160 80 0 80 0 0 80
0 80 80 0 80 0 0 -160 0 -160 -80 0 -80 0 0 -80 0 -80 -80 0 -80 0 0 80 0 80
-160 0 -160 0 0 -80 0 -80 160 0 160 0 0 -80 0 -80 80 0 80 0 0 -80 0 -80 80
0 80 0 0 -160 0 -160 80 0 80 0 0 160 0 160 160 0 160 0 0 -80 0 -80 -80 0
-80 0 0 -240 0 -240 80 0 80 0 0 80 0 80 80 0 80 0 0 80 0 80 80 0 80 0 0
-160 0 -160 80 0 80 0 0 80 0 80 320 0 320 0 0 -160 0 -160 80 0 80 0 0 240 0
240 160 0 160 0 0 160 0 160 80 0 80 0 0 80 0 80 80 0 80 0 0 -80 0 -80 160 0
160 0 0 -160 0 -160 -240 0 -240 0 0 -80 0 -80 -160 0 -160 0 0 -80 0 -80 160
0 160 0 0 -80 0 -80 -80 0 -80 0 0 -80 0 -80 -240 0 -240 0 0 -160 0 -160 80
0 80 0 0 80 0 80 160 0 160 0 0 -80 0 -80 -80 0 -80 0 0 -80 0 -80 80 0 80 0
0 80 0 80 80 0 80 0 0 80 0 80 160 0 160 0 0 -160 0 -160 -80 0 -80 0 0 -80 0
-80 -320 0 -320 0 0 80 0 80 -80 0 -80 0 0 -80 0 -80 -160 0 -160 0 0 -80 0
-80 -80 0 -80 0 0 -80 0 -80 -80 0 -80 0 0 -80 0 -80 80 0 80 0 0 -80 0 -80
-80 0 -80 0 0 -80 0 -80 80 0 80 0 0 -80 0 -80 -80 0 -80 0 0 -80 0 -80 -80 0
-80 0 0 80 0 80 -80 0 -80 0 0 80 0 80 -320 0 -320 0 0 -80 0 -80 80 0 80 0 0
-80 0 -80 -80 0 -80 0 0 -80 0 -80 -80 0 -80 0 0 160 0 160 -80 0 -80 0 0 80
0 80 -80 0 -80 0 0 -80 0 -80 80 0 80 0 0 -80 0 -80 -80 0 -80 0 0 -80 0 -80
-80 0 -80 0 0 -160 0 -160 -80 0 -80 0 0 160 0 160 -240 0 -240 0 0 240 0 240
80 0 80 0 0 160 0 160 80 0 80 0 0 160 0 160 -80 0 -80 0 0 80 0 80 80 0 80 0
0 160 0 160 -160 0 -160 0 0 80 0 80 240 0 240 0 0 80 0 80 -160 0 -160 0 0
400 0 400 -80 0 -80 0 0 -80 0 -80 -80 0 -80 0 0 160 0 160 320 0 320 0 0
-160 0 -160 -80 0 -80 0 0 -80 0 -80 80 0 80 0 0 80 0 80 80 0 80 0 0 80 0 80
80 0 80 0 0 80 0 80 -80 0 -80 0 0 80 0 80 -80 0 -80 0 0 80 0 80 -80 0 -80 0
0 80 0 80 -80 0 -80 0 0 240 0 240 240 0 240 0 0 -160 0 -160 80 0 80 0 0 160
0 160 -80 0 -80 0 0 80 0 80 80 0 80 0 0 80 0 80 -80 0 -80 0 0 -80 0 -80 -80
0 -80 0 0 80 0 80 -80 0 -80 0 0 160 0 160 -80 0 -80 0 0 80 0 80 -80 0 -80 0
0 -80 0 -80 80 0 80 0 0 -240 0 -240 -80 0 -80 0 0 160 0 160 -80 0 -80 0 0
80 0 80 -80 0 -80 0 0 -80 0 -80 -80 0 -80 0 0 160 0 160 -80 0 -80 0 0 -240z
m480 -160 l0 -80 -80 0 -80 0 0 80 0 80 80 0 80 0 0 -80z m160 -320 l0 -80
-80 0 -80 0 0 80 0 80 80 0 80 0 0 -80z m2560 0 l0 -80 -80 0 -80 0 0 80 0 80
80 0 80 0 0 -80z m-640 -320 l0 -80 -80 0 -80 0 0 80 0 80 80 0 80 0 0 -80z
m640 0 l0 -80 -80 0 -80 0 0 80 0 80 80 0 80 0 0 -80z m320 -80 l0 -160 -80 0
-80 0 0 160 0 160 80 0 80 0 0 -160z m-2720 -240 l0 -80 80 0 80 0 0 -80 0
-80 -240 0 -240 0 0 -80 0 -80 -80 0 -80 0 0 80 0 80 -80 0 -80 0 0 -160 0
-160 -80 0 -80 0 0 -80 0 -80 80 0 80 0 0 -80 0 -80 -80 0 -80 0 0 -80 0 -80
-80 0 -80 0 0 80 0 80 -80 0 -80 0 0 80 0 80 80 0 80 0 0 80 0 80 -80 0 -80 0
0 80 0 80 80 0 80 0 0 -80 0 -80 80 0 80 0 0 160 0 160 80 0 80 0 0 80 0 80
80 0 80 0 0 -80 0 -80 80 0 80 0 0 80 0 80 80 0 80 0 0 80 0 80 80 0 80 0 0
-80z m1440 0 l0 -80 80 0 80 0 0 -80 0 -80 80 0 80 0 0 80 0 80 160 0 160 0 0
-80 0 -80 -80 0 -80 0 0 -80 0 -80 -160 0 -160 0 0 80 0 80 -80 0 -80 0 0 80
0 80 -160 0 -160 0 0 -80 0 -80 80 0 80 0 0 -80 0 -80 -80 0 -80 0 0 80 0 80
-80 0 -80 0 0 80 0 80 80 0 80 0 0 80 0 80 160 0 160 0 0 -80z m960 -160 l0
-80 80 0 80 0 0 80 0 80 80 0 80 0 0 -80 0 -80 -80 0 -80 0 0 -80 0 -80 80 0
80 0 0 -80 0 -80 80 0 80 0 0 -80 0 -80 -80 0 -80 0 0 80 0 80 -80 0 -80 0 0
-80 0 -80 -160 0 -160 0 0 80 0 80 -80 0 -80 0 0 -80 0 -80 -80 0 -80 0 0 80
0 80 80 0 80 0 0 80 0 80 80 0 80 0 0 -80 0 -80 160 0 160 0 0 80 0 80 -80 0
-80 0 0 80 0 80 -80 0 -80 0 0 80 0 80 80 0 80 0 0 -80z m1920 0 l0 -80 -80 0
-80 0 0 80 0 80 80 0 80 0 0 -80z m-1280 -160 l0 -80 -80 0 -80 0 0 80 0 80
80 0 80 0 0 -80z m-1280 -320 l0 -80 -80 0 -80 0 0 80 0 80 80 0 80 0 0 -80z
m-2080 -160 l0 -80 -80 0 -80 0 0 80 0 80 80 0 80 0 0 -80z m4000 -160 l0 -80
-160 0 -160 0 0 80 0 80 160 0 160 0 0 -80z m-4320 -320 l0 -80 80 0 80 0 0
80 0 80 160 0 160 0 0 -160 0 -160 -80 0 -80 0 0 -160 0 -160 -80 0 -80 0 0
80 0 80 -80 0 -80 0 0 160 0 160 -160 0 -160 0 0 -80 0 -80 80 0 80 0 0 -160
0 -160 -160 0 -160 0 0 80 0 80 -80 0 -80 0 0 160 0 160 160 0 160 0 0 80 0
80 160 0 160 0 0 -80z m4160 0 l0 -80 -80 0 -80 0 0 -80 0 -80 -80 0 -80 0 0
80 0 80 80 0 80 0 0 80 0 80 80 0 80 0 0 -80z m480 -80 l0 -160 -80 0 -80 0 0
80 0 80 -80 0 -80 0 0 80 0 80 160 0 160 0 0 -160z m0 -560 l0 -80 -160 0
-160 0 0 80 0 80 160 0 160 0 0 -80z m-1120 -160 l0 -80 160 0 160 0 0 -80 0
-80 -80 0 -80 0 0 -80 0 -80 320 0 320 0 0 80 0 80 80 0 80 0 0 -80 0 -80 -80
0 -80 0 0 -80 0 -80 -240 0 -240 0 0 -80 0 -80 -80 0 -80 0 0 -80 0 -80 -80 0
-80 0 0 -160 0 -160 80 0 80 0 0 80 0 80 80 0 80 0 0 -80 0 -80 -80 0 -80 0 0
-80 0 -80 80 0 80 0 0 -80 0 -80 -80 0 -80 0 0 80 0 80 -80 0 -80 0 0 80 0 80
-80 0 -80 0 0 80 0 80 -80 0 -80 0 0 80 0 80 -80 0 -80 0 0 -160 0 -160 80 0
80 0 0 -80 0 -80 -80 0 -80 0 0 80 0 80 -80 0 -80 0 0 160 0 160 80 0 80 0 0
80 0 80 -80 0 -80 0 0 80 0 80 80 0 80 0 0 240 0 240 160 0 160 0 0 80 0 80
80 0 80 0 0 -80z m640 -160 l0 -80 -80 0 -80 0 0 80 0 80 80 0 80 0 0 -80z
m640 -160 l0 -80 -80 0 -80 0 0 80 0 80 80 0 80 0 0 -80z m-4640 -160 l0 -80
-80 0 -80 0 0 80 0 80 80 0 80 0 0 -80z m320 0 l0 -80 -80 0 -80 0 0 80 0 80
80 0 80 0 0 -80z m-1440 -160 l0 -80 -80 0 -80 0 0 80 0 80 80 0 80 0 0 -80z
m1280 -160 l0 -80 -80 0 -80 0 0 80 0 80 80 0 80 0 0 -80z m2080 -160 l0 -80
-80 0 -80 0 0 -80 0 -80 240 0 240 0 0 -80 0 -80 80 0 80 0 0 -160 0 -160 -80
0 -80 0 0 -80 0 -80 -80 0 -80 0 0 -80 0 -80 160 0 160 0 0 -80 0 -80 80 0 80
0 0 -160 0 -160 -80 0 -80 0 0 -80 0 -80 -320 0 -320 0 0 -80 0 -80 -160 0
-160 0 0 160 0 160 -80 0 -80 0 0 80 0 80 160 0 160 0 0 80 0 80 -80 0 -80 0
0 80 0 80 80 0 80 0 0 80 0 80 80 0 80 0 0 320 0 320 -80 0 -80 0 0 -240 0
-240 -80 0 -80 0 0 240 0 240 80 0 80 0 0 80 0 80 80 0 80 0 0 80 0 80 80 0
80 0 0 -80z m-960 -320 l0 -80 -80 0 -80 0 0 80 0 80 80 0 80 0 0 -80z m-640
-160 l0 -80 80 0 80 0 0 -160 0 -160 80 0 80 0 0 160 0 160 240 0 240 0 0 80
0 80 80 0 80 0 0 -160 0 -160 -160 0 -160 0 0 -80 0 -80 80 0 80 0 0 -80 0
-80 80 0 80 0 0 -80 0 -80 -80 0 -80 0 0 -160 0 -160 -80 0 -80 0 0 -80 0 -80
-80 0 -80 0 0 -80 0 -80 -80 0 -80 0 0 80 0 80 -80 0 -80 0 0 80 0 80 160 0
160 0 0 80 0 80 80 0 80 0 0 80 0 80 -80 0 -80 0 0 160 0 160 -80 0 -80 0 0
-80 0 -80 -80 0 -80 0 0 80 0 80 -80 0 -80 0 0 160 0 160 -80 0 -80 0 0 80 0
80 80 0 80 0 0 -80z m3680 -80 l0 -160 -80 0 -80 0 0 80 0 80 -80 0 -80 0 0
80 0 80 160 0 160 0 0 -160z m-960 -160 l0 -160 80 0 80 0 0 -80 0 -80 -80 0
-80 0 0 -80 0 -80 -80 0 -80 0 0 80 0 80 80 0 80 0 0 80 0 80 -240 0 -240 0 0
160 0 160 240 0 240 0 0 -160z m1440 -80 l0 -80 -80 0 -80 0 0 80 0 80 80 0
80 0 0 -80z m-640 -320 l0 -240 -240 0 -240 0 0 240 0 240 240 0 240 0 0 -240z
m-3680 0 l0 -80 -80 0 -80 0 0 80 0 80 80 0 80 0 0 -80z m3040 -320 l0 -80 80
0 80 0 0 -160 0 -160 240 0 240 0 0 -80 0 -80 -240 0 -240 0 0 80 0 80 -240 0
-240 0 0 -80 0 -80 -80 0 -80 0 0 80 0 80 -80 0 -80 0 0 80 0 80 80 0 80 0 0
160 0 160 240 0 240 0 0 -80z m960 0 l0 -80 160 0 160 0 0 -80 0 -80 -160 0
-160 0 0 -80 0 -80 80 0 80 0 0 -80 0 -80 -160 0 -160 0 0 160 0 160 -80 0
-80 0 0 80 0 80 80 0 80 0 0 80 0 80 80 0 80 0 0 -80z m-480 -160 l0 -80 -80
0 -80 0 0 80 0 80 80 0 80 0 0 -80z"/>
<path d="M1060 3700 l0 -80 80 0 80 0 0 80 0 80 -80 0 -80 0 0 -80z"/>
<path d="M4900 3060 l0 -80 80 0 80 0 0 80 0 80 -80 0 -80 0 0 -80z"/>
<path d="M4740 2740 l0 -80 -80 0 -80 0 0 -80 0 -80 80 0 80 0 0 80 0 80 80 0
80 0 0 80 0 80 -80 0 -80 0 0 -80z"/>
<path d="M5060 2580 l0 -80 -80 0 -80 0 0 -80 0 -80 80 0 80 0 0 80 0 80 80 0
80 0 0 80 0 80 -80 0 -80 0 0 -80z"/>
<path d="M3940 1620 l0 -80 80 0 80 0 0 80 0 80 -80 0 -80 0 0 -80z"/>
<path d="M3620 1140 l0 -80 80 0 80 0 0 80 0 80 -80 0 -80 0 0 -80z"/>
<path d="M4260 980 l0 -80 80 0 80 0 0 80 0 80 -80 0 -80 0 0 -80z"/>
<path d="M3940 820 l0 -80 80 0 80 0 0 80 0 80 -80 0 -80 0 0 -80z"/>
<path d="M2980 1140 l0 -80 80 0 80 0 0 80 0 80 -80 0 -80 0 0 -80z"/>
<path d="M5540 1140 l0 -80 80 0 80 0 0 80 0 80 -80 0 -80 0 0 -80z"/>
<path d="M4900 660 l0 -80 160 0 160 0 0 80 0 80 -160 0 -160 0 0 -80z"/>
<path d="M2500 6580 l0 -80 80 0 80 0 0 80 0 80 -80 0 -80 0 0 -80z"/>
<path d="M3780 6500 l0 -160 80 0 80 0 0 -80 0 -80 80 0 80 0 0 80 0 80 -80 0
-80 0 0 80 0 80 80 0 80 0 0 80 0 80 -160 0 -160 0 0 -160z"/>
<path d="M5540 6100 l0 -560 560 0 560 0 0 560 0 560 -560 0 -560 0 0 -560z
m960 0 l0 -400 -400 0 -400 0 0 400 0 400 400 0 400 0 0 -400z"/>
<path d="M5860 6100 l0 -240 240 0 240 0 0 240 0 240 -240 0 -240 0 0 -240z"/>
<path d="M2980 6260 l0 -240 80 0 80 0 0 240 0 240 -80 0 -80 0 0 -240z"/>
<path d="M2340 5620 l0 -80 80 0 80 0 0 80 0 80 -80 0 -80 0 0 -80z"/>
<path d="M1060 5300 l0 -80 80 0 80 0 0 80 0 80 -80 0 -80 0 0 -80z"/>
<path d="M2820 4500 l0 -80 -80 0 -80 0 0 -80 0 -80 160 0 160 0 0 80 0 80 80
0 80 0 0 -80 0 -80 80 0 80 0 0 80 0 80 -80 0 -80 0 0 80 0 80 -160 0 -160 0
0 -80z"/>
<path d="M420 4180 l0 -80 80 0 80 0 0 80 0 80 -80 0 -80 0 0 -80z"/>
<path d="M2340 4180 l0 -80 80 0 80 0 0 80 0 80 -80 0 -80 0 0 -80z"/>
<path d="M4580 4100 l0 -160 -80 0 -80 0 0 80 0 80 -80 0 -80 0 0 -80 0 -80
80 0 80 0 0 -240 0 -240 -80 0 -80 0 0 -80 0 -80 80 0 80 0 0 80 0 80 160 0
160 0 0 400 0 400 -80 0 -80 0 0 -160z"/>
<path class="bit-ly-logo" d="M3230 4166 c-331 -70 -578 -325 -636 -657 -45 -256 37 -510 222 -696
46 -46 58 -53 92 -53 71 0 112 63 80 123 -6 12 -33 46 -60 76 -104 114 -159
255 -159 405 0 119 14 183 63 285 32 67 56 101 117 160 133 133 275 187 461
178 129 -6 203 -30 306 -99 129 -86 222 -214 259 -358 13 -49 16 -92 12 -180
-5 -127 -27 -204 -87 -303 -37 -61 -96 -134 -103 -127 -2 3 -1 34 3 70 20 205
-97 352 -280 353 -67 0 -119 -17 -187 -63 l-33 -22 0 159 c0 134 -3 164 -20
200 -26 58 -69 83 -144 83 -69 0 -114 -23 -145 -74 -49 -78 -1 -139 67 -86 18
15 29 17 36 10 7 -7 13 -138 16 -388 6 -423 5 -418 83 -494 62 -60 132 -82
262 -82 93 0 121 4 183 26 143 51 299 169 388 293 92 130 141 266 151 422 24
382 -216 718 -588 823 -96 27 -269 35 -359 16z m343 -1026 c37 -29 50 -80 45
-169 -8 -134 -59 -198 -165 -208 -109 -10 -163 36 -163 139 0 150 89 258 211
258 31 0 55 -7 72 -20z"/>
<path d="M100 3860 l0 -80 80 0 80 0 0 80 0 80 -80 0 -80 0 0 -80z"/>
<path d="M2340 2580 l0 -80 80 0 80 0 0 -80 0 -80 -80 0 -80 0 0 -80 0 -80 80
0 80 0 0 80 0 80 80 0 80 0 0 80 0 80 -80 0 -80 0 0 80 0 80 -80 0 -80 0 0
-80z"/>
<path d="M100 1860 l0 -480 80 0 80 0 0 480 0 480 -80 0 -80 0 0 -480z"/>
<path d="M900 2100 l0 -80 -80 0 -80 0 0 -240 0 -240 160 0 160 0 0 -80 0 -80
160 0 160 0 0 -80 0 -80 80 0 80 0 0 80 0 80 80 0 80 0 0 80 0 80 -160 0 -160
0 0 80 0 80 80 0 80 0 0 160 0 160 -160 0 -160 0 0 80 0 80 -160 0 -160 0 0
-80z m320 -160 l0 -80 80 0 80 0 0 -80 0 -80 -80 0 -80 0 0 -80 0 -80 -80 0
-80 0 0 80 0 80 80 0 80 0 0 80 0 80 -160 0 -160 0 0 80 0 80 160 0 160 0 0
-80z"/>
<path d="M420 1620 l0 -80 80 0 80 0 0 80 0 80 -80 0 -80 0 0 -80z"/>
<path d="M100 660 l0 -560 560 0 560 0 0 560 0 560 -560 0 -560 0 0 -560z
m960 0 l0 -400 -400 0 -400 0 0 400 0 400 400 0 400 0 0 -400z"/>
<path d="M420 660 l0 -240 240 0 240 0 0 240 0 240 -240 0 -240 0 0 -240z"/>
</g>
</svg>
