<?xml version="1.0" standalone="no"?>
<!DOCTYPE svg PUBLIC "-//W3C//DTD SVG 20010904//EN"
 "http://www.w3.org/TR/2001/REC-SVG-20010904/DTD/svg10.dtd">
<svg version="1.0" xmlns="http://www.w3.org/2000/svg"
 width="928.000000pt" height="928.000000pt" viewBox="0 0 928.000000 928.000000"
 preserveAspectRatio="xMidYMid meet">
<metadata>
Created by potrace 1.14, written by Peter Selinger 2001-2017
</metadata>
<g transform="translate(0.000000,928.000000) scale(0.100000,-0.100000)"
fill="#000000" stroke="none">
<path d="M7655 6731 c-112 -68 -277 -323 -426 -656 -258 -578 -443 -1185 -599
-1974 -40 -207 -40 -205 20 -263 52 -50 93 -68 119 -51 9 5 35 57 59 114 128
311 285 580 497 854 150 193 339 367 381 351 26 -10 36 -57 29 -141 -19 -234
-118 -586 -279 -999 -38 -95 -64 -177 -61 -187 6 -19 80 -66 125 -79 43 -12
65 10 121 122 55 110 131 236 258 427 78 119 103 181 65 167 -9 -3 -17 -6 -19
-6 -1 0 -45 -52 -96 -115 -83 -103 -109 -129 -109 -109 0 4 20 70 44 148 84
265 136 516 139 663 2 119 -7 131 -144 201 -125 64 -118 65 -254 -56 -198
-176 -398 -432 -576 -738 -34 -57 -65 -104 -70 -104 -11 0 -12 -10 11 106 99
479 198 826 335 1174 172 436 394 831 514 914 74 51 109 53 213 10 62 -26 91
-23 86 9 -4 26 -183 175 -253 211 -60 31 -89 32 -130 7z"/>
<path d="M1906 6228 c-3 -7 -7 -49 -10 -93 -3 -44 -12 -85 -19 -92 -6 -6 -61
-33 -122 -58 -170 -72 -393 -196 -545 -304 -195 -137 -288 -224 -326 -305 -16
-32 -16 -43 -5 -83 21 -79 136 -247 204 -297 47 -34 53 -13 32 103 -28 156
-13 202 103 313 43 40 120 102 172 137 88 59 402 221 429 221 17 0 15 -14 -33
-186 -117 -419 -227 -721 -420 -1146 -26 -58 -42 -71 -52 -43 -4 8 -16 15 -29
15 -35 0 -159 -48 -172 -67 -7 -9 -13 -43 -13 -74 0 -82 -24 -194 -72 -342
-30 -94 -38 -131 -30 -139 8 -8 33 -6 94 7 151 32 184 61 272 240 48 95 198
458 272 655 134 355 290 812 354 1035 17 61 37 119 45 130 29 46 430 145 584
145 97 0 125 -10 151 -52 61 -100 -26 -435 -175 -673 -90 -146 -248 -268 -362
-281 -42 -5 -57 -1 -118 30 -38 20 -84 36 -101 36 -38 0 -102 -40 -179 -113
l-60 -56 21 -21 c15 -15 41 -24 91 -30 94 -12 149 -34 268 -109 242 -153 474
-337 546 -432 46 -61 79 -138 79 -186 0 -37 -36 -95 -75 -121 -51 -35 -156
-68 -295 -93 -101 -18 -165 -23 -330 -23 -202 -1 -206 -1 -262 26 -38 18 -67
40 -87 69 -47 63 -60 70 -158 72 l-87 2 -24 -59 c-32 -79 -35 -175 -8 -205 41
-45 99 -53 446 -58 374 -6 566 5 718 42 120 29 169 52 207 97 24 29 27 38 22
84 -5 47 -2 56 30 100 102 142 121 236 69 332 -65 117 -223 260 -469 423 -84
55 -153 104 -155 109 -2 4 21 13 50 20 316 76 574 428 618 843 14 129 4 179
-40 202 -16 8 -38 15 -50 15 -14 0 -33 20 -64 68 -68 105 -110 134 -212 147
-80 11 -323 -31 -502 -86 -35 -10 -68 -16 -73 -13 -5 3 -18 23 -29 44 -20 39
-76 90 -99 90 -6 0 -13 -6 -15 -12z"/>
<path d="M8924 6101 c-82 -37 -180 -235 -329 -669 -30 -84 -60 -163 -69 -176
-15 -24 -96 -59 -208 -91 -63 -18 -83 -35 -73 -64 7 -23 14 -26 118 -42 43 -6
80 -16 83 -20 3 -5 -17 -89 -44 -186 -96 -343 -162 -631 -202 -878 -24 -150
-23 -154 90 -217 100 -56 132 -59 186 -20 85 62 334 348 334 384 0 12 -8 18
-25 18 -17 0 -59 -31 -137 -102 -120 -107 -190 -158 -220 -158 -28 0 -40 45
-33 120 8 77 47 289 76 415 54 229 180 633 201 646 6 4 58 10 117 13 189 12
306 27 320 41 8 8 11 23 7 39 l-6 26 -193 2 c-187 3 -192 4 -195 24 -4 31 120
359 193 509 65 133 131 222 186 250 15 8 49 15 74 15 42 0 46 2 43 23 -4 27
-74 68 -167 97 -76 24 -76 24 -127 1z"/>
<path d="M4895 5734 c-60 -57 -125 -115 -142 -127 -18 -12 -33 -28 -33 -34 0
-7 19 -23 43 -35 62 -32 146 -31 217 4 73 36 175 121 190 159 11 27 10 32 -9
53 -22 24 -131 86 -147 85 -5 0 -58 -47 -119 -105z"/>
<path d="M4113 5248 c-29 -14 -115 -125 -230 -298 -117 -174 -216 -345 -315
-545 -87 -174 -85 -171 -94 -163 -18 19 191 638 268 793 l40 79 -24 21 c-32
28 -129 59 -159 52 -14 -4 -41 -30 -64 -63 -22 -32 -89 -122 -148 -202 -59
-79 -107 -152 -105 -160 6 -33 32 -22 86 39 120 133 131 144 137 137 3 -3 -23
-93 -59 -200 -94 -279 -187 -608 -231 -818 -20 -95 -13 -111 74 -155 39 -19
82 -35 96 -35 32 0 50 35 122 243 130 378 285 676 504 969 83 111 109 134 136
124 20 -8 10 -117 -23 -235 -31 -111 -30 -121 9 -158 75 -70 117 -81 140 -35
40 77 89 419 73 505 -7 40 -43 67 -88 67 -13 0 -37 8 -54 19 -43 26 -66 31
-91 19z"/>
<path d="M6196 5244 c-3 -9 -6 -34 -6 -57 0 -191 -217 -643 -468 -980 -131
-174 -292 -336 -358 -357 -46 -15 -88 1 -104 41 -28 66 -4 259 51 417 99 280
344 649 473 711 55 27 130 27 197 0 100 -39 141 -7 72 57 -76 71 -171 144
-206 159 -85 35 -165 1 -287 -124 -250 -255 -500 -786 -500 -1060 0 -122 37
-186 150 -259 113 -73 167 -86 236 -57 89 37 320 318 514 625 57 91 105 167
107 169 40 54 -80 -423 -197 -784 -245 -757 -521 -1201 -834 -1339 -210 -93
-427 -47 -686 145 -103 76 -124 86 -145 69 -26 -22 -18 -69 18 -103 304 -286
610 -398 867 -318 481 150 895 995 1224 2501 79 361 87 428 54 468 -20 24
-129 92 -148 92 -10 0 -21 -7 -24 -16z"/>
<path d="M4625 5173 c-61 -61 -195 -233 -195 -249 0 -26 19 -15 116 71 54 47
103 85 110 85 39 0 24 -172 -35 -400 -22 -85 -43 -166 -47 -180 -44 -173 -141
-441 -215 -598 -27 -58 -46 -108 -43 -113 7 -12 81 -49 118 -60 56 -16 69 -5
125 109 29 59 106 193 172 298 65 104 119 195 119 202 0 29 -29 6 -89 -69 -88
-111 -116 -121 -82 -28 24 67 101 313 134 434 92 329 102 434 44 463 -37 18
-151 64 -173 69 -15 3 -32 -6 -59 -34z"/>
</g>
</svg>
